<svg xmlns="http://www.w3.org/2000/svg" width="960" height="785" viewBox="0 0 960 785">
<rect width="100%" height="100%" fill="#FFFFFF"/>
<text x="24" y="36" font-family="Arial" font-size="22" font-weight="700" fill="#17365D">Eksikliği en yüksek 20 sütun</text>
<text x="248" y="90" text-anchor="end" font-family="Arial" font-size="14" fill="#263238">CAT_6</text>
<rect x="260" y="74" width="600.0" height="22" rx="3" fill="#DC2626"/>
<text x="868.0" y="90" font-family="Arial" font-size="13" fill="#263238">%99.0</text>
<text x="248" y="124" text-anchor="end" font-family="Arial" font-size="14" fill="#263238">AL_29</text>
<rect x="260" y="108" width="545.3" height="22" rx="3" fill="#DC2626"/>
<text x="813.3" y="124" font-family="Arial" font-size="13" fill="#263238">%89.9</text>
<text x="248" y="158" text-anchor="end" font-family="Arial" font-size="14" fill="#263238">AL_33</text>
<rect x="260" y="142" width="545.3" height="22" rx="3" fill="#DC2626"/>
<text x="813.3" y="158" font-family="Arial" font-size="13" fill="#263238">%89.9</text>
<text x="248" y="192" text-anchor="end" font-family="Arial" font-size="14" fill="#263238">AL_34</text>
<rect x="260" y="176" width="545.3" height="22" rx="3" fill="#DC2626"/>
<text x="813.3" y="192" font-family="Arial" font-size="13" fill="#263238">%89.9</text>
<text x="248" y="226" text-anchor="end" font-family="Arial" font-size="14" fill="#263238">AL_30</text>
<rect x="260" y="210" width="545.3" height="22" rx="3" fill="#DC2626"/>
<text x="813.3" y="226" font-family="Arial" font-size="13" fill="#263238">%89.9</text>
<text x="248" y="260" text-anchor="end" font-family="Arial" font-size="14" fill="#263238">AL_31</text>
<rect x="260" y="244" width="545.3" height="22" rx="3" fill="#DC2626"/>
<text x="813.3" y="260" font-family="Arial" font-size="13" fill="#263238">%89.9</text>
<text x="248" y="294" text-anchor="end" font-family="Arial" font-size="14" fill="#263238">AL_37</text>
<rect x="260" y="278" width="545.3" height="22" rx="3" fill="#DC2626"/>
<text x="813.3" y="294" font-family="Arial" font-size="13" fill="#263238">%89.9</text>
<text x="248" y="328" text-anchor="end" font-family="Arial" font-size="14" fill="#263238">AL_38</text>
<rect x="260" y="312" width="545.3" height="22" rx="3" fill="#DC2626"/>
<text x="813.3" y="328" font-family="Arial" font-size="13" fill="#263238">%89.9</text>
<text x="248" y="362" text-anchor="end" font-family="Arial" font-size="14" fill="#263238">AL_27</text>
<rect x="260" y="346" width="545.3" height="22" rx="3" fill="#DC2626"/>
<text x="813.3" y="362" font-family="Arial" font-size="13" fill="#263238">%89.9</text>
<text x="248" y="396" text-anchor="end" font-family="Arial" font-size="14" fill="#263238">AL_36</text>
<rect x="260" y="380" width="545.3" height="22" rx="3" fill="#DC2626"/>
<text x="813.3" y="396" font-family="Arial" font-size="13" fill="#263238">%89.9</text>
<text x="248" y="430" text-anchor="end" font-family="Arial" font-size="14" fill="#263238">AL_32</text>
<rect x="260" y="414" width="545.3" height="22" rx="3" fill="#DC2626"/>
<text x="813.3" y="430" font-family="Arial" font-size="13" fill="#263238">%89.9</text>
<text x="248" y="464" text-anchor="end" font-family="Arial" font-size="14" fill="#263238">AL_28</text>
<rect x="260" y="448" width="545.3" height="22" rx="3" fill="#DC2626"/>
<text x="813.3" y="464" font-family="Arial" font-size="13" fill="#263238">%89.9</text>
<text x="248" y="498" text-anchor="end" font-family="Arial" font-size="14" fill="#263238">AL_35</text>
<rect x="260" y="482" width="545.3" height="22" rx="3" fill="#DC2626"/>
<text x="813.3" y="498" font-family="Arial" font-size="13" fill="#263238">%89.9</text>
<text x="248" y="532" text-anchor="end" font-family="Arial" font-size="14" fill="#263238">AL_1</text>
<rect x="260" y="516" width="535.9" height="22" rx="3" fill="#DC2626"/>
<text x="803.9" y="532" font-family="Arial" font-size="13" fill="#263238">%88.4</text>
<text x="248" y="566" text-anchor="end" font-family="Arial" font-size="14" fill="#263238">AL_2</text>
<rect x="260" y="550" width="535.9" height="22" rx="3" fill="#DC2626"/>
<text x="803.9" y="566" font-family="Arial" font-size="13" fill="#263238">%88.4</text>
<text x="248" y="600" text-anchor="end" font-family="Arial" font-size="14" fill="#263238">AL_3</text>
<rect x="260" y="584" width="535.9" height="22" rx="3" fill="#DC2626"/>
<text x="803.9" y="600" font-family="Arial" font-size="13" fill="#263238">%88.4</text>
<text x="248" y="634" text-anchor="end" font-family="Arial" font-size="14" fill="#263238">AL_5</text>
<rect x="260" y="618" width="535.9" height="22" rx="3" fill="#DC2626"/>
<text x="803.9" y="634" font-family="Arial" font-size="13" fill="#263238">%88.4</text>
<text x="248" y="668" text-anchor="end" font-family="Arial" font-size="14" fill="#263238">AL_4</text>
<rect x="260" y="652" width="535.9" height="22" rx="3" fill="#DC2626"/>
<text x="803.9" y="668" font-family="Arial" font-size="13" fill="#263238">%88.4</text>
<text x="248" y="702" text-anchor="end" font-family="Arial" font-size="14" fill="#263238">AL_6</text>
<rect x="260" y="686" width="535.9" height="22" rx="3" fill="#DC2626"/>
<text x="803.9" y="702" font-family="Arial" font-size="13" fill="#263238">%88.4</text>
<text x="248" y="736" text-anchor="end" font-family="Arial" font-size="14" fill="#263238">AL_215</text>
<rect x="260" y="720" width="468.8" height="22" rx="3" fill="#DC2626"/>
<text x="736.8" y="736" font-family="Arial" font-size="13" fill="#263238">%77.3</text>
</svg>